<svg xmlns="http://www.w3.org/2000/svg" width="128" height="128" viewBox="0 0 128 128">
  <title>RECYCLE</title>
  <g>
    <polygon points="96.595 44.459 91.076 55.024 78.304 55.024 71.004 42.388 65.762 33.302 58.368 20.5 82.764 20.5 95.4 42.388 96.595 44.459" fill="#c4e59e"/>
    <path d="M65.762,33.3l-5.241,9.086-3.461,5.94-18.3-10.566L43.94,28.83A16.659,16.659,0,0,1,58.368,20.5h0Z" fill="#99cc71"/>
    <polygon points="69.427 104.779 63.037 94.716 69.423 83.655 84.016 83.651 94.506 83.655 109.29 83.652 97.092 104.78 71.818 104.779 69.427 104.779" fill="#c4e59e"/>
    <path d="M94.506,83.655l-5.248-9.082-3.414-5.967,18.3-10.568,5.144,8.954a16.66,16.66,0,0,1,0,16.66h0Z" fill="#99cc71"/>
    <polygon points="30.311 51.343 42.221 50.84 48.607 61.901 41.314 74.541 36.065 83.623 28.676 96.428 16.478 75.3 29.116 53.413 30.311 51.343" fill="#c4e59e"/>
    <path d="M36.065,83.623l10.49,0,6.874.027,0,21.134-10.326-.022a16.66,16.66,0,0,1-14.429-8.33h0Z" fill="#99cc71"/>
  </g>
</svg>
